<?xml version="1.0" encoding="utf-8"?>
<!-- Generator: Adobe Illustrator 24.1.1, SVG Export Plug-In . SVG Version: 6.00 Build 0)  -->
<svg version="1.1" id="Layer_1" xmlns="http://www.w3.org/2000/svg" xmlns:xlink="http://www.w3.org/1999/xlink" x="0px" y="0px"
	 viewBox="0 0 135 131.3" style="enable-background:new 0 0 135 131.3;" xml:space="preserve">
<style type="text/css">
	.st0{fill:#FF8B3B;}
	.st1{fill:#FFFFFF;}
</style>
<path class="st0" d="M134.6,55.9l-8.8-40.8c-1.3-5.9-6.3-10.3-12.4-10.7L48.5,0c-5.7-0.4-11.1,2.9-13.4,8.1L0.9,86.4
	c-1.2,2.9-1.1,6.1,0.4,8.9L16,122.9c4.4,8.1,14.7,10.9,22.5,5.9l89.1-56.2C133.2,69.1,136,62.4,134.6,55.9"/>
<path class="st1" d="M43.3,75.4c1.7-0.4,5.2-0.1,5.3,4c-0.2,3.9-1.7,6-3.2,7c-1.8,0.2-2.4-1.3-4.9,0.2c-4,2.5-8.3,11.7-8.4,18.2
	c-0.1,6.3,1.9,10,6.4,7.3c2.7-1.6,4.8-4.1,6-5.5c0.7-0.9,1.3-1.6,1.7-1.8c1.5-0.9,3,2,2.9,3.6c-0.1,4.2-4.2,10.4-10.3,14.1
	c-8.4,5.1-13.7-0.6-13.5-11.8c0.2-12,6.5-28.6,15.2-34C41.4,76.1,42.4,75.7,43.3,75.4"/>
<path class="st1" d="M70.9,102.4c-3.6,2.3-3.7-2.1-4.5-6.4l-8.2,5.2c0.2,3.3,1.4,8.2-2.3,10.6c-2.1,1.3-4,0.5-4.3-2.4
	c-0.6-5.2-2.1-39.5,8-45.9c5.7-3.6,10.2,12.6,11.6,18.4c1.2,5.3,1.9,9.3,2.4,13.4C73.8,97.8,72.3,101.5,70.9,102.4 M57.8,90.6
	l1.7-1.1c2-1.3,4.4-2.6,4.8-2.9c-1.4-5.4-3-10.5-4.3-9.7C58.3,78,57.8,84.2,57.8,90.6"/>
<path class="st1" d="M87.2,68c5.2,1.9,14.2,4.6,14.6,8.3c0.3,2.8-0.5,6.4-3.7,6.7c-3.1,0.3-5.8-1.8-8.4-3.1
	c-2.3-1.4-5.3-2.3-6.1-2.8c0.6,4.5,1,7,1.3,9.8c0.3,2.3,0.3,6.1-3.2,8.4c-1.9,1.3-4.2,0.4-4.5-2.3c-0.7-5.6-0.8-9.2-1.3-13.3
	c-0.2-2-2.8-20.5-3.1-22.8c-0.4-3.1,1.8-5.9,3.4-6.9c2.1-1.4,4.3,0.1,4.7,2.8c0.3,2.3,0.2,5.3,0.6,8.9c0,0.3,0.1,0.6,0.1,0.9
	c1.8-4.2,3.8-8.8,5.7-13.1c2.4-5.6,3.8-9.6,5.3-10.5c1.7-1.1,3.7,1,4,3.5c0.2,1.6-0.5,3.1-2,6.7L87.2,68z"/>
<path class="st1" d="M118.6,54c-4.7,3.1-7.8,9.2-7.5,11.7c0,0.4,0.6,0.2,1.6-0.5c4.6-2.9,5.6-6.1,8.8-8.1c2.7-1.7,4.3-0.1,4.6,2
	c0.8,7.2-9.8,14.5-12.2,16c-4.4,2.8-10,5.5-10.7-1.1c-0.4-3.3,0.3-8,2.3-12.9c-3.2,0.7-5-1.2-5.4-4.9c-1.1-9.6,7-23.2,16-28.9
	c3.5-2.2,6.7-2,7.2,2.1c0.5,4-1.3,7-2.8,8c-2.1,1.3-2.6,0-5.7,2c-2.7,1.7-8.2,6.3-7.7,10.1c0.2,2.1,3.4,0.5,4.9-0.4
	c3-1.9,4.4-3.6,6-4.6c2.5-1.6,3.8-0.4,4.1,1.9C122.3,48.6,121.2,52.3,118.6,54"/>
<path class="st1" d="M86.8,8.8c5.1,3.5,4.6,9.1-0.5,12.6c-6,4.2-15.3,5.2-21.7,0.8c-5.5-3.8-4.1-8.7,1-12.3
	C73.3,4.6,82.4,5.8,86.8,8.8 M69.9,19c2.9,2,8.1,2.6,11.7,0.1c2.9-2,3-5.4,0.4-7.2c-3.5-2.4-8.3-2-11.9,0.5
	C67.2,14.3,67.3,17.2,69.9,19"/>
<path class="st1" d="M113.9,18.8c-3.4-0.3-6.7-1.2-11.1-1.6c-0.3,0-0.6-0.1-1.2-0.1c-0.5,0.8-1.3,1.8-3.4,4.7
	c2.7,0.2,5.1,0.4,7.4,0.6c4.2,0.4,7.3,0.9,5.3,3.8c-2.7,3.5-5.6,3.7-11.3,3.2c-1.8-0.2-3.9-0.4-6.5-0.6c-1.4,1.9-3.5,5-4.2,6.2
	c-2.5,3.4-5.2,4.3-7.4,4.1c-3.4-0.3-3-2.4-1-5.1c0.4-0.5,3.2-2.7,15.7-20.3c2.7-3.9,7.5-3.8,14.6-3.2c1.9,0.2,3.9,0.5,7.7,1.5
	c2.3,0.7,1.9,2.7,1,3.8C118.3,17.7,116.4,19.1,113.9,18.8"/>
<path class="st1" d="M9.8,81.8c0.9-1.6,3-3.3,5.3,0.9c3.3,6,1.7,13.6-0.1,15.8c0.6,1.4,1.5,3,2.1,4.2c0.8,1.7,0.7,3.8-0.1,4.6
	c-0.9,0.9-2.1,0.6-2.9-1.3l-0.7-1.5c-1.3-3-2.6-6.2-3.7-8.5c-1.3-3-1.6-3.4-1.9-3.7c-0.2-0.2-0.4-0.5-0.6-1.1
	C6,88.4,9.3,82.7,9.8,81.8 M12.6,92.5c1.2-2.1,1.4-5,0.8-6.2c-0.5-1-1.2-0.2-1.5,0.2c-0.4,0.6-0.7,1.6-0.9,2.5L12.6,92.5z"/>
<path class="st1" d="M25.1,91.4c-0.9,1-2.7,0.6-3.5-0.9c-5.8-11-7.2-13.5-7.8-14.7c-0.8-1.5-0.9-3.9-0.3-5.1
	c0.4-0.7,1.8-1.6,2.9,0.3c0.8,1.5,1.8,3.4,2.7,5c0.4,0.8,3.5,6.2,5,8.7C25.4,86.8,26.4,90,25.1,91.4"/>
<path class="st1" d="M29.1,66.3c-2,2.6-2.5,6.7-1.8,8.3c0.1,0.3,0.4,0.1,0.8-0.4c2.1-2.4,2-4.6,3.5-6.3c1.3-1.6,3-0.8,3.8,0.6
	c2.9,5.2-3,11.5-4.2,12.6c-2.1,2-4.8,3.8-6.5-0.7c-0.8-2.1-1.3-5-1.2-8.1c-1.4,0.7-2.5-0.2-3.2-2.2c-1.8-4.7-0.5-12.5,2.3-17.3
	c1.2-2,2.8-2.9,3.8-1.1c1,1.8,0.7,3.9,0.1,4.9c-0.8,1.2-1.3,0.7-2.5,2.4c-1,1.4-2.6,4.8-1.8,6.7c0.4,1.1,1.7-0.3,2.2-1
	c1.1-1.6,1.5-2.8,2.2-3.7c1-1.5,2-1.1,2.7,0.1C30.1,62.3,30.3,64.8,29.1,66.3"/>
<path class="st1" d="M30.9,33.7c0.6-1,1.4-1.8,2.6-2.1c1.2-0.3,2.6,0,3.4,1c0.8,1,0.8,2.6-0.1,3.5c-1.2,1.1-2.1,2.1-2.6,3.7
	c-0.6,1.8-0.4,4.1-0.3,6c0.3,4.1,1.4,8.2,3.2,11.9c0.5,0.9,1.6,3.3,2.9,2.9c1.6-0.4,1.5-3.1,1.5-4.5c0-1.2-0.2-3,0.5-4
	c0.8-1.2,2.6-0.2,3.3,0.5c0.7,0.7,1.1,1.6,1.3,2.6c1,3.7,0.6,9-2.1,11.9c-3.8,4-9.3,0.3-12.5-7.8c-1.4-3.7-2.3-7.6-2.8-11.6
	c-0.5-3.9-0.6-8.1,0.6-11.9C30.2,35.2,30.5,34.4,30.9,33.7"/>
<path class="st1" d="M55.2,27.1c-1.7,2.7-3,6.8-3.5,10c-0.4,2.5,0.1,9.8,3.5,10.1c5.2,0.5,6.9-11.3,7.6-14.5
	c0.4-1.9,1.1-4.5,3.3-4.8c1.9-0.3,3.9,0.9,4.5,2.8c1.4,4.2-1.1,9.4-2.6,13.2c-1.7,4.1-4.1,7.2-7.4,10c-4.1,3.4-8.9,4.7-11.5-1
	c-1.5-3.2-2.7-7.2-2.7-12.1c-2.1,1.6-3.8,0.7-5-2c-1.9-4.3-1.6-9.6-0.9-14.2c0.4-2.9,1.1-5.7,1.9-8.5c0.8-2.5,1.7-5.7,3.5-7.6
	c0.8-0.8,1.8-1.3,2.9-1.3c3.6,0.1,3,4.7,1.8,6.8c-0.6,1.1-1.3,1.9-2.1,2.8c-0.9,1.1-1.6,2.3-2.2,3.6c-1.2,2.8-2.4,7.1-1.4,10.1
	c0.1,0.3,0.2,0.7,0.5,0.9c0.2,0.2,0.6,0.4,0.9,0.3c0.4-0.1,0.6-0.5,0.8-0.9c0.9-2,1.6-4,2.3-6c0.5-1.8,1.1-4,2.7-5.2
	c0.7-0.6,1.7-0.9,2.6-0.6c0.9,0.3,1.5,1.3,1.6,2.2C56.6,23.4,56.3,25.4,55.2,27.1"/>
</svg>
