<?xml version="1.0" encoding="utf-8"?>
<!-- Generator: Adobe Illustrator 24.1.1, SVG Export Plug-In . SVG Version: 6.00 Build 0)  -->
<svg version="1.1" id="Layer_1" xmlns="http://www.w3.org/2000/svg" xmlns:xlink="http://www.w3.org/1999/xlink" x="0px" y="0px"
	 viewBox="0 0 144.6 138.3" style="enable-background:new 0 0 144.6 138.3;" xml:space="preserve">
<style type="text/css">
	.st0{fill:#F478C4;}
	.st1{fill:#FFFFFF;}
</style>
<path class="st0" d="M91,138.2c-13.2,1.3-28.7-6.3-44.4-16.8C25.6,107.4-1.2,88.1,0,59.6c0.5-11.7,8.1-33.2,19.8-36.4
	c12.7-3.5,34,6.7,45.3,12.6c-1.1-0.6,11-17.6,12.2-19C83.2,9.9,90.6,3,99.5,0.6c15.5-4.2,40.4,14,44.3,29c2.1,8.1,0.2,17.4-2.1,25.4
	c-5.7,19.3-13.7,37.8-22.1,56C113.6,123.6,106.3,136.7,91,138.2"/>
<path class="st1" d="M45.4,89c3.1-0.8,5.2,1.2,5.9,3.3c0.4,1.3,7.4,18.5,11.9,17.4c4.1-1,3.1-13.1,2.2-16.9
	c-0.2-3.6-3.3-9.8,2.6-11.3c2.9-0.7,5.4,0.6,5.8,3.4c0.7,4.8,2.2,29.9-9.4,32.7c-6.9,1.7-13.7-8.3-16.2-12.5
	c-2.4-4-3.9-7.1-5.4-10.7C42,92.4,43.4,89.5,45.4,89"/>
<path class="st1" d="M45.2,58.7c0.9,4.3,2.6,11.5,2.9,12.7c3.5-0.9,8-2,10.9-2.6c1-0.3,1.8-0.6,2.7-0.8c2.2-0.5,4,1,4.5,3.2
	c0.3,1.5-0.3,3.9-1.6,4.6c-3.2,1.7-6.8,2.8-10.9,3.6c-7,1.5-12.2,2.3-13.3-2.5c-4.7-21.8-5.5-24.8-5.7-25.5l0-0.2
	c-0.7-3.2-0.2-5.8,3-6.5c1.9-0.4,4.7,0.4,5.6,4.5L45.2,58.7z"/>
<path class="st1" d="M85.4,71c-9.7,2.1-16.6-5-18.5-13.7C64.6,46.6,70.9,38.2,79,36.4c9.2-2,17.6,4.1,19.5,13.1
	C100.5,58.8,96.2,68.6,85.4,71 M80.3,44.1c-6,1.3-7.9,6.3-6.8,11.4c1.1,5,5.5,8.1,10.4,7.1c4.9-1.1,9-5.6,7.8-11.1
	C90.5,46.3,85.1,43.1,80.3,44.1"/>
<path class="st1" d="M98.8,96c-4.9,1.1-7.9,4.8-7.5,6.7c0.1,0.3,0.7,0.3,1.7,0c4.8-1,5.7-3.1,8.9-3.8c2.8-0.6,4.6,1,5,2.6
	c1.2,5.4-9.8,8.2-12.3,8.8c-4.5,1-10.3,1.6-11.4-3.4c-0.5-2.5,0-5.8,1.9-8.9c-3.3-0.2-5.4-2.1-6-4.9c-1.6-7.2,6.4-15.3,15.7-17.3
	c3.6-0.8,7,0.2,7.7,3.2c0.7,3-1,4.8-2.6,5.2c-2.1,0.5-2.7-0.6-5.9,0.1c-2.8,0.6-8.4,2.7-7.8,5.5c0.3,1.6,3.7,1.2,5.3,0.9
	c3.1-0.7,4.5-1.6,6.2-1.9c2.6-0.6,4,0.6,4.4,2.4C102.5,93,101.5,95.4,98.8,96"/>
</svg>
