<?xml version="1.0" encoding="utf-8"?>
<!-- Generator: Adobe Illustrator 24.1.1, SVG Export Plug-In . SVG Version: 6.00 Build 0)  -->
<svg version="1.1" id="Layer_1" xmlns="http://www.w3.org/2000/svg" xmlns:xlink="http://www.w3.org/1999/xlink" x="0px" y="0px"
	 viewBox="0 0 121 130.1" style="enable-background:new 0 0 121 130.1;" xml:space="preserve">
<style type="text/css">
	.st0{fill:#39A84A;}
	.st1{fill:#E38038;}
</style>
<path class="st0" d="M12.1,53.9c0-0.5-0.3-1-0.5-1.4c-0.2-0.5-0.3-1-0.4-1.5c-0.3-1.1-0.5-2.2-0.6-3.3c-0.2-2-0.1-4.1,0.2-6.1
	c0.7-4.2,2.4-8.2,4.8-11.7c2.4-3.5,5.6-6.5,9.2-8.6c4.5-2.6,9.3-3.6,14.5-3.5c2.4,0,4.7,0.3,7,0.9c1.4,0.3,2.9,0.5,4.3,0.9
	c0.6-0.7,0.9-1.6,1.4-2.4c0.5-0.9,1-1.8,1.6-2.7c1.1-1.7,2.3-3.4,3.6-5c2.7-3.2,6.1-5.6,10.1-7c3.7-1.2,8.1-1.8,11.9-0.8
	c1.7,0.5,3.3,1.3,4.7,2.4c1.4,1.1,1.7,1.8,2.8,3.1c1.6-1.2,3.1-2.7,4.7-3.9C99-2.3,113.5-1,116.8,9.2c1,3.1,0.9,6.5,0.2,9.7
	c-0.4,1.8-0.9,3.6-1.5,5.3c-0.4,1-0.8,1.9-1.2,2.9c-0.2,0.5-0.5,1.1-0.8,1.6c-0.2,0.5-0.6,1-0.8,1.5c0.2,0.3,0.9,0.4,1.2,0.5
	c0.3,0.1,0.6,0.3,0.9,0.4c0.7,0.4,1.4,0.8,2,1.3c1,0.8,1.9,1.8,2.5,2.9c1.3,2.3,1.6,5,1.4,7.6c-0.5,6.1-3.3,11.9-6.4,17
	c-1.5,2.5-3.2,5-5,7.3c0.6,0,1.2,1,1.5,1.3c0.6,0.7,1.2,1.4,1.8,2.2c5.5,8.1-0.6,22.3-8.7,26.4c-1.2,0.6-2.4,1-3.7,1.3
	c-0.5,0.1-2.5,0.8-2.8,0.3c-0.2,0.8-0.3,1.7-0.5,2.5c-0.3,1-0.6,2.1-1,3.1c-0.6,1.6-1.3,3.2-2.3,4.7c-1.8,2.6-4.2,4.6-6.9,6.1
	c-5.5,3.2-12.2,4.7-18.5,3.8c-1.3-0.2-2.4-0.4-3.6-0.9c-0.5-0.2-2.7-0.8-2.8-1.5c-2,2.3-3.9,4.6-6.3,6.6c-2.4,1.9-5.1,3.5-8,4.7
	c-5.3,2.1-11.7,3.1-17.1,1.1c-1.4-0.5-2.8-1.3-4-2.3c-0.6-0.5-1.2-1.1-1.7-1.7c-0.2-0.3-0.5-0.6-0.7-1c-0.2-0.4-0.4-0.9-0.7-1.1
	c-0.4,0-0.9,0.5-1.3,0.7c-0.4,0.2-0.8,0.3-1.1,0.5c-0.9,0.3-1.8,0.5-2.7,0.7c-1.9,0.3-3.9,0.2-5.8-0.1c-3.8-0.7-7.5-2.5-10-5.4
	c-2.6-3-3.1-6.8-2.7-10.7c0.5-4.7,1.9-9.3,3.7-13.7c1-2.5,2.2-4.9,3.5-7.3c0.6-1,1.2-2,1.9-3c0.3-0.4,0.6-0.9,1-1.3
	c0.3-0.4,0.9-0.9,1.1-1.3c-0.4-0.4-1.1-0.6-1.6-0.9c-0.6-0.3-1.1-0.7-1.6-1.2c-1-0.8-1.8-1.7-2.6-2.7c-1.5-2-2.6-4.4-3.2-6.8
	c-1-4.4-0.5-9.6,2.7-13c0.9-0.9,1.9-1.7,3-2.3c0.6-0.3,1.3-0.6,2-0.7c0.3-0.1,0.6-0.2,1-0.2C11.2,54,11.8,54.1,12.1,53.9"/>
<path class="st1" d="M41,27.9c1.2,0,3.4,0.7,2.5,3.1c-1,2.2-2.5,3.3-3.7,3.6c-1.2-0.1-1.3-1.1-3.2-0.6c-3.1,0.8-8,5.6-9.6,9.4
	c-1.5,3.7-1,6.1,2.5,5.2c2.1-0.6,4-1.7,5.1-2.4l0,0c0.7-0.4,1.2-0.7,1.5-0.8c1.2-0.3,1.5,1.6,1.1,2.6c-1,2.5-5.1,5.4-9.8,6.7
	c-6.5,1.8-8.7-2.4-6-8.9c2.9-7,10.7-15.8,17.5-17.6C39.6,28.1,40.4,28,41,27.9"/>
<path class="st1" d="M56.3,37.2c-4.4,10.7-9.6,12.6-12.9,13.5c-5.5,1.5-5-2.6-3.5-6.2c0.3-0.7,2.2-5.1,2.5-5.8
	c0.4-1,0.9-2.3,1.5-3.7c1.5-3.6,3.5-7.6,6-8.3c1.4-0.4,1.5,1,0.9,2.4c-0.6,1.6-4.8,10.8-5.5,12.6c-0.6,1.5-1.1,3,1.5,2.3
	c2.5-0.7,3.7-3,5.5-7.4c0.5-1.1,0.8-2,1.1-2.9l0,0c0.6-1.4,1-2.9,1.8-4.8c0.8-1.9,2.2-3.8,4.5-4.9c1.1-0.3,2.1,0,1.3,2L56.3,37.2z"
	/>
<path class="st1" d="M75.7,25c-0.3,0.1-0.8,0.2-1.5,0.4c-0.7,0.2-1.4,0.4-2.1,0.6l-0.3,0.8c-0.9,2.1-2.2,5.1-3.4,7.9
	c-1,2.6-2,5.1-2.8,7.4c-0.6,1.5-3.5,3.3-4.1,3.4c-1.3,0.4-1.6-0.9-0.8-2.8l0.1-0.2c0.2-0.5,1-2.3,3.7-9l0.3-0.8
	c0.4-0.9,0.7-1.6,1-2.3c0.4-0.9,0.7-1.7,1.1-2.9l-0.1,0c-1.4,0.5-2.9,0.9-3.9,1.3c-1.6,0.4-1.5-1.1-1-2.5c1.2-3,4.2-3.9,7.1-4.7
	c0.3-0.1,6.9-2,7.9-2.2c2-0.5,3.7-0.6,2.8,1.7C79,22.7,77.2,24.5,75.7,25"/>
<path class="st1" d="M87.8,29.5c-3.3,1-6.8,3.9-7.4,5.4c-0.1,0.3,0.3,0.2,1,0c3.3-0.9,4.7-2.5,6.9-3.1c1.9-0.5,2.3,0.7,1.8,2
	c-1.8,4.3-9.4,6.6-11.1,7.1c-3.1,0.8-6.8,1.4-5.2-2.5c0.8-2,2.6-4.6,5.1-7c-1.8-0.2-2.2-1.6-1.3-3.8c2.4-5.7,10.6-12.2,17-13.9
	c2.5-0.7,4.1,0,3.1,2.5c-1,2.4-2.8,3.8-3.9,4.1c-1.4,0.4-1.3-0.5-3.5,0.1c-1.9,0.5-6.1,2.2-7,4.5c-0.5,1.2,1.6,0.9,2.7,0.6
	c2.1-0.6,3.3-1.3,4.5-1.6c1.8-0.5,2.1,0.5,1.5,1.8C91.3,27,89.6,28.9,87.8,29.5"/>
<path class="st1" d="M97.6,28.9c1.5-0.4,1.9,0.5,1.1,2.2c-0.9,2.1-3.2,5-5.2,5.5c-1.8,0.5-1.6-1.1-1.2-2.2
	C93.3,32.1,95.5,29.4,97.6,28.9 M108,10.7c-1.3,3.1-3.3,6.5-6.7,12.6c-0.9,1.6-2.5,4-3.8,4.4c-1.5,0.4-0.7-2.3,2.1-9
	c1.9-4.7,4.5-9,7.6-9.8C108.3,8.6,108.6,9.5,108,10.7"/>
<path class="st1" d="M37.8,58c1.2,0,3.4,0.7,2.5,3.1c-1,2.2-2.5,3.3-3.7,3.6c-1.2-0.1-1.3-1.1-3.2-0.6c-3.1,0.8-8,5.6-9.6,9.4
	c-1.5,3.7-1,6.1,2.5,5.2c2.1-0.6,4-1.7,5.1-2.4l0,0c0.7-0.4,1.2-0.7,1.5-0.8c1.2-0.3,1.5,1.6,1.1,2.6c-1,2.5-5.1,5.4-9.8,6.7
	c-6.5,1.8-8.7-2.4-6-8.9c2.9-7,10.7-15.8,17.5-17.6C36.5,58.2,37.2,58.1,37.8,58"/>
<path class="st1" d="M53.1,67.3C48.7,78,43.5,79.9,40.2,80.8c-5.5,1.5-5-2.6-3.5-6.2c0.3-0.7,2.2-5.1,2.5-5.8c0.4-1,0.9-2.3,1.5-3.7
	c1.5-3.6,3.5-7.6,6-8.3c1.4-0.4,1.5,1,0.9,2.4C47,60.8,42.8,70,42.1,71.7c-0.6,1.5-1.1,3,1.5,2.3c2.5-0.7,3.7-3,5.5-7.5
	c0.5-1.1,0.8-2,1.1-2.9l0,0c0.6-1.4,1-2.9,1.8-4.8c0.8-1.9,2.2-3.8,4.5-4.9c1.1-0.3,2.1,0,1.3,2L53.1,67.3z"/>
<path class="st1" d="M72.5,55.1c-0.3,0.1-0.8,0.2-1.5,0.4c-0.7,0.2-1.4,0.4-2.1,0.6l-0.3,0.8c-0.9,2.1-2.2,5.1-3.4,7.9
	c-1,2.6-2,5.1-2.8,7.4c-0.6,1.5-3.5,3.3-4.1,3.4c-1.3,0.4-1.6-0.9-0.8-2.8l0.1-0.2c0.2-0.5,1-2.3,3.7-9l0.3-0.8
	c0.4-0.9,0.7-1.6,1-2.3c0.4-0.9,0.7-1.7,1.1-2.9l-0.1,0c-1.4,0.5-2.9,0.9-3.9,1.3c-1.6,0.4-1.5-1.1-1-2.5c1.2-3,4.2-3.9,7.1-4.7
	c0.3-0.1,6.9-2,7.9-2.2c2-0.5,3.7-0.6,2.8,1.7C75.8,52.8,74,54.6,72.5,55.1"/>
<path class="st1" d="M84.6,59.6c-3.3,1-6.8,3.9-7.4,5.4c-0.1,0.3,0.3,0.2,1,0c3.3-0.9,4.7-2.5,6.9-3.1c1.9-0.5,2.3,0.7,1.8,2
	c-1.8,4.3-9.4,6.6-11.1,7.1c-3.1,0.8-6.8,1.4-5.2-2.5c0.8-2,2.6-4.6,5.1-7c-1.8-0.2-2.2-1.6-1.3-3.8c2.4-5.7,10.6-12.2,17-13.9
	c2.5-0.7,4.1,0,3.1,2.5c-1,2.4-2.8,3.8-3.9,4.1c-1.4,0.4-1.3-0.5-3.5,0.1c-1.9,0.5-6.1,2.2-7,4.5c-0.5,1.2,1.6,0.9,2.7,0.6
	c2.1-0.6,3.3-1.3,4.5-1.6c1.8-0.5,2.1,0.5,1.5,1.8C88.2,57.1,86.5,59,84.6,59.6"/>
<path class="st1" d="M94.4,59c1.5-0.4,1.9,0.5,1.1,2.2c-0.9,2.1-3.2,5-5.2,5.5c-1.8,0.5-1.6-1.1-1.2-2.2
	C90.1,62.2,92.3,59.6,94.4,59 M104.9,40.8c-1.3,3.1-3.3,6.5-6.7,12.6c-0.9,1.6-2.5,4-3.8,4.4c-1.5,0.4-0.7-2.3,2.1-9
	c1.9-4.7,4.5-9,7.6-9.8C105.2,38.7,105.4,39.6,104.9,40.8"/>
<path class="st1" d="M34.6,88.2c1.2,0,3.4,0.7,2.5,3.1c-1,2.2-2.5,3.3-3.7,3.6c-1.2-0.1-1.3-1.1-3.2-0.6c-3.1,0.8-8,5.6-9.6,9.4
	c-1.5,3.7-1,6.1,2.5,5.2c2.1-0.6,4-1.7,5.1-2.4l0,0c0.7-0.4,1.2-0.7,1.5-0.8c1.2-0.3,1.5,1.6,1.1,2.6c-1,2.5-5.1,5.4-9.8,6.7
	c-6.5,1.8-8.7-2.4-6-8.9c2.9-7,10.7-15.8,17.5-17.6C33.3,88.3,34,88.2,34.6,88.2"/>
<path class="st1" d="M49.9,97.4c-4.4,10.7-9.6,12.6-12.9,13.5c-5.5,1.5-5-2.6-3.5-6.2c0.3-0.7,2.2-5.1,2.5-5.8
	c0.4-1,0.9-2.3,1.5-3.7c1.5-3.6,3.5-7.6,6-8.3c1.4-0.4,1.5,1,0.9,2.4c-0.6,1.6-4.8,10.8-5.5,12.6c-0.6,1.5-1.1,3,1.5,2.3
	c2.5-0.7,3.7-3,5.5-7.5c0.5-1.1,0.8-2,1.1-2.9l0,0c0.6-1.4,1-2.9,1.8-4.8c0.8-1.9,2.2-3.8,4.5-4.9c1.1-0.3,2.1,0,1.3,2L49.9,97.4z"
	/>
<path class="st1" d="M69.4,85.2c-0.3,0.1-0.8,0.2-1.5,0.4c-0.7,0.2-1.4,0.4-2.1,0.6L65.4,87c-0.9,2.1-2.2,5.1-3.4,7.9
	c-1,2.6-2,5.1-2.8,7.4c-0.6,1.5-3.5,3.3-4.1,3.4c-1.3,0.4-1.6-0.9-0.8-2.8l0.1-0.2c0.2-0.5,1-2.3,3.7-9l0.3-0.8
	c0.4-0.9,0.7-1.6,1-2.3c0.4-0.9,0.7-1.7,1.1-2.9l-0.1,0c-1.4,0.5-2.9,0.9-3.9,1.3c-1.6,0.4-1.5-1.1-1-2.5c1.2-3,4.2-3.9,7.1-4.7
	c0.3-0.1,6.9-2,7.9-2.2c2-0.5,3.7-0.6,2.8,1.7C72.6,82.9,70.8,84.7,69.4,85.2"/>
<path class="st1" d="M81.5,89.7c-3.3,1-6.8,3.9-7.4,5.4c-0.1,0.3,0.3,0.2,1,0c3.3-0.9,4.7-2.5,6.9-3.1c1.9-0.5,2.3,0.7,1.8,2
	c-1.8,4.3-9.4,6.6-11.1,7.1c-3.1,0.8-6.8,1.4-5.2-2.5c0.8-2,2.6-4.6,5.1-7.1c-1.8-0.2-2.2-1.6-1.3-3.8c2.4-5.7,10.6-12.2,17-13.9
	c2.5-0.7,4.1,0,3.1,2.5c-1,2.4-2.8,3.8-3.9,4.1c-1.4,0.4-1.3-0.5-3.5,0.1c-1.9,0.5-6.1,2.2-7,4.5c-0.5,1.2,1.6,0.9,2.7,0.6
	c2.1-0.6,3.3-1.3,4.5-1.6c1.8-0.5,2.1,0.5,1.5,1.8C85,87.2,83.3,89.2,81.5,89.7"/>
<path class="st1" d="M91.2,89.1c1.5-0.4,1.9,0.5,1.1,2.2c-0.9,2.1-3.2,5-5.2,5.5c-1.8,0.5-1.6-1.1-1.2-2.2
	C86.9,92.4,89.1,89.7,91.2,89.1 M101.7,70.9c-1.3,3.1-3.3,6.5-6.7,12.6c-0.9,1.6-2.5,4-3.8,4.4c-1.5,0.4-0.7-2.3,2.1-9
	c1.9-4.7,4.5-9,7.6-9.8C102,68.8,102.2,69.7,101.7,70.9"/>
</svg>
