<?xml version="1.0" encoding="utf-8"?>
<!-- Generator: Adobe Illustrator 24.1.1, SVG Export Plug-In . SVG Version: 6.00 Build 0)  -->
<svg version="1.1" id="Layer_1" xmlns="http://www.w3.org/2000/svg" xmlns:xlink="http://www.w3.org/1999/xlink" x="0px" y="0px"
	 viewBox="0 0 118.2 113.3" style="enable-background:new 0 0 118.2 113.3;" xml:space="preserve">
<style type="text/css">
	.st0{fill:#FF8B3B;}
</style>
<path class="st0" d="M4.8,42.7c1.5,0,3.7-0.7,6.1-4.1c0.4-0.6,0.8-1.2,1.3-1.8c3-4.2,7-10,10.4-10.5c0.8-0.1,1.6,0.1,2.3,0.6
	c0.4,0.3,1.1,1.1,1.1,2.2c-0.1,1.5-1.5,4.1-7.8,7.9c-2.4,1.5-3.9,3.4-3.9,5.3c0,1.2,0.6,2.3,1.8,3.1c4.4,2.7,7.3-1.8,9.8-5.7
	c1.7-2.6,3.3-5.1,5-5.1c1.6,0,2.1,1.4,2.8,3.8c0.8,2.8,1.7,6.4,6.7,5.4c1.3-0.3,2.5-0.8,3.4-1.6c1.2-1,1.9-2.4,2.1-4
	c0.3-3-1.4-6-4-7.2c-2.8-1.2-3.6-4.1-4.6-7c-1-3.3-2.1-6.6-5.6-8.3c-5.8-2.6-7.8-0.9-11.3,2.4c-1.5,1.3-3.3,3-5.8,4.8
	c-0.9,0.6-2,1.3-3.1,2C6.8,27.8,1,31.5,0.1,35.9c-0.3,1.7,0.1,3.3,1.2,4.9C2.1,42,3.4,42.7,4.8,42.7"/>
<path class="st0" d="M30.7,69.8c-1.9-0.7-4.2-1.6-6.8-3.1c-1-0.5-2-1.2-3.2-1.8C15.9,62,10,58.4,5.6,59.6C4,60,2.7,61.1,1.8,62.8
	c-0.7,1.2-0.7,2.7-0.1,4c0.6,1.3,2.3,3,6.4,3.7c0.7,0.1,1.4,0.2,2.2,0.3c5.1,0.8,12.1,1.8,14.1,4.6c0.5,0.7,0.6,1.4,0.5,2.3
	c-0.1,0.5-0.5,1.5-1.5,1.9c-1.4,0.6-4.4,0.5-10.5-3.5c-2.4-1.5-4.8-2-6.4-1.2c-1.1,0.5-1.8,1.6-1.9,3c-0.5,5.2,4.8,5.7,9.5,6.3
	c3.1,0.3,6,0.7,6.8,2.2c0.8,1.5-0.3,2.5-2.2,4.2c-2.2,2-4.9,4.4-1.8,8.4c0.8,1.1,1.8,1.9,2.9,2.3c1.4,0.6,3,0.7,4.5,0.1
	c2.8-1,4.8-3.9,4.7-6.8c-0.1-3,2-5.1,4.3-7.2c2.5-2.4,5-4.8,4.9-8.7C37.7,72.4,35.2,71.5,30.7,69.8"/>
<path class="st0" d="M82.7,93.6c0.2-3.4,0.4-6.9-2.4-9.7c-4.5-4.5-7-3.5-11.4-1.7c-1.8,0.8-4.1,1.7-7.1,2.5
	c-1.1,0.3-2.3,0.5-3.6,0.8C52.8,86.7,46,88.1,43.6,92c-0.9,1.4-1.1,3.1-0.6,5c0.3,1.4,1.4,2.5,2.7,3c1.4,0.5,3.7,0.6,7.1-1.7
	c0.6-0.4,1.2-0.8,1.8-1.2c4.3-2.9,10.1-7,13.4-6.3c0.8,0.2,1.4,0.6,1.9,1.4c0.3,0.5,0.7,1.4,0.2,2.5c-0.6,1.4-2.9,3.4-10,4.7
	c-2.8,0.5-4.8,1.8-5.5,3.6c-0.4,1.2-0.2,2.4,0.6,3.5c3.2,4.1,7.4,0.9,11.2-1.9c2.5-1.9,4.9-3.7,6.5-3.1c1.5,0.5,1.5,2.1,1.3,4.5
	c-0.3,2.9-0.6,6.6,4.4,7.4c1.3,0.2,2.6,0.1,3.7-0.3c1.5-0.5,2.6-1.5,3.4-3c1.3-2.7,0.8-6.1-1.3-8.1C82.4,99.6,82.5,96.7,82.7,93.6"
	/>
<path class="st0" d="M45.8,60.5c4-3.3,9.5-7.7,12.9-7.3c0.8,0.1,1.5,0.5,2,1.2c0.3,0.4,0.8,1.3,0.4,2.5c-0.5,1.5-2.6,3.6-9.7,5.4
	c-2.7,0.7-4.7,2.2-5.2,4c-0.4,1.2,0,2.4,0.9,3.5c3.5,3.8,7.5,0.3,11-2.8c2.3-2.1,4.6-4,6.2-3.6c1.6,0.4,1.6,2,1.6,4.4
	c0,2.9-0.1,6.6,5,7c1.4,0.1,2.6-0.1,3.7-0.6c1.4-0.6,2.5-1.7,3.1-3.3c1.1-2.8,0.4-6.1-1.9-8c-2.3-1.9-2.4-4.9-2.4-8
	c-0.1-3.4-0.1-6.9-3.1-9.5c-4.9-4.2-7.2-3-11.5-0.8c-1.8,0.9-4,2-6.9,3c-1.1,0.4-2.2,0.7-3.5,1.1c-5.3,1.6-12,3.6-14,7.6
	c-0.8,1.5-0.8,3.2-0.2,5c0.5,1.3,1.5,2.4,2.9,2.8c1.4,0.4,3.7,0.4,7-2.2C44.6,61.4,45.2,61,45.8,60.5"/>
<path class="st0" d="M51.9,10.9c0.7-0.1,1.4-0.1,2.2-0.2c5.2-0.5,12.2-1.2,14.8,1.1c0.6,0.6,1,1.2,1,2.1c0,0.5-0.1,1.5-1,2.3
	c-1.2,0.9-4.1,1.5-11-0.8c-2.7-0.9-5.1-0.7-6.5,0.4c-1,0.8-1.4,2-1.1,3.4c0.8,5.1,6.1,4.4,10.7,3.8c3.1-0.4,6-0.8,7.2,0.5
	c1.1,1.2,0.3,2.5-1.1,4.6c-1.7,2.4-3.7,5.5,0.3,8.6c1.1,0.8,2.2,1.4,3.4,1.6c1.5,0.3,3.1-0.1,4.4-1c2.5-1.7,3.7-4.9,2.9-7.7
	c-0.8-2.9,0.7-5.4,2.4-8c1.8-2.9,3.7-5.9,2.6-9.6c-1.8-6.1-4.4-6.5-9.2-7c-2-0.2-4.4-0.5-7.4-1.3c-1.1-0.3-2.3-0.6-3.5-1
	C57.5,0.8,50.9-1.2,47,1c-1.5,0.8-2.5,2.2-3,4c-0.4,1.4,0,2.8,0.9,3.9C45.8,10,47.8,11.3,51.9,10.9"/>
<path class="st0" d="M113.7,49.1c-1.5-1.3-3.4-2.9-5.5-5.1c-0.7-0.8-1.5-1.8-2.4-2.8c-3.6-4.3-8-9.6-12.5-9.9
	c-1.7-0.1-3.3,0.5-4.7,1.8c-1,0.9-1.6,2.3-1.4,3.8c0.2,1.4,1.1,3.6,4.8,5.5c0.6,0.3,1.3,0.7,2,1c4.6,2.4,10.8,5.7,11.8,9
	c0.2,0.8,0.1,1.6-0.3,2.3c-0.3,0.5-0.9,1.3-2.1,1.3c-1.5,0.1-4.3-1-8.8-6.7c-1.7-2.2-3.9-3.4-5.7-3.2c-1.2,0.1-2.2,0.9-2.8,2.2
	c-2.1,4.7,2.7,7,6.9,9c2.8,1.3,5.5,2.6,5.7,4.3c0.2,1.6-1.1,2.3-3.4,3.2c-2.7,1.1-6.1,2.5-4.5,7.3c0.4,1.3,1.1,2.4,2,3.1
	c1.1,1.1,2.6,1.6,4.2,1.6c3,0,5.8-2.1,6.6-4.9c0.9-2.9,3.6-4.1,6.4-5.4c3.1-1.4,6.3-2.9,7.5-6.6C119.4,53.9,117.3,52.2,113.7,49.1"
	/>
</svg>
