<?xml version="1.0" encoding="utf-8"?>
<!-- Generator: Adobe Illustrator 24.1.1, SVG Export Plug-In . SVG Version: 6.00 Build 0)  -->
<svg version="1.1" id="Layer_1" xmlns="http://www.w3.org/2000/svg" xmlns:xlink="http://www.w3.org/1999/xlink" x="0px" y="0px"
	 viewBox="0 0 147.8 128.6" style="enable-background:new 0 0 147.8 128.6;" xml:space="preserve">
<style type="text/css">
	.st0{fill:#FF8B3B;}
	.st1{fill:#F478C4;}
	.st2{fill:#FFFFFF;}
</style>
<path class="st0" d="M5.8,50.9c0,0-8,34.6-2.6,45.5c3.6,7.2,14.5,12,21.1,16c24.4,14.5,56.8,19.2,84.8,14.5
	c10.7-1.8,24.1-4,28.1-14.9c4.5-12.3,9.4-40.8,9.4-40.8s-10.9,1.1-14.8,1.4c-13.1,1-28.4-1.8-41.4-3.1c-17.9-1.9-35.4-7-53-9.8
	C30.1,58.4,5.8,50.9,5.8,50.9"/>
<path class="st1" d="M139.7,51.4c-2.2-2.2-4.6-4.2-6.9-5.7c-14.7-9.4-33.4-12.6-50.6-14.5c-19.6-2.1-62.2-7.2-73.9,12
	C-3.3,62.1,31.9,74.1,46.3,77.4c28.2,6.4,66,17,92.4,1.9c1.8-1,3.3-2.1,4.5-3.1C151.8,69,146.8,58.7,139.7,51.4"/>
<path class="st2" d="M55.5,49.4l0.6-0.7c0.8-1,2.2-2.7,3.9-4.6c2.1-2.5,5.1-5.1,7.5-4.1c2.3,1,1.5,2.9-0.3,5l-0.2,0.2
	c-0.5,0.6-2.9,3.2-15.7,17.8c-1.3,1.5-3.9,2.6-6,1.8c-2.1-0.9-0.9-3.1,1.2-5.5l3.7-4.2l-7.2-3c-0.8,0.9-1.7,2-2.6,3
	c-2.6,3-5.6,5.8-8.2,4.8c-2.3-1-1.5-2.9,0.3-5l0.2-0.2c0.5-0.5,2.5-2.7,15.2-17.3c1.2-1.4,3.9-2.6,6-1.8c2.1,0.9,0.9,3.1-1.3,5.5
	c-1.6,1.9-3.7,3.7-4.8,5l3.4,1.4C53.2,48.4,54.4,48.9,55.5,49.4"/>
<path class="st2" d="M62.9,71c2.4-3.6,5.1-7.8,7.2-11.2c2.3-3.9,2.4-4.8,2.4-5.4c0-0.5,0.1-1.1,0.7-2c3.2-5.4,13.9-3,15.9-2.5
	c3.9,0.9,8.4,2.5,5.8,6.8c-1.2,2-4.5,4.6-7.4,6.2c2.3,1.4,2.5,3.7,1,6.2c-3.8,6.2-14.8,9.7-22.8,7.9c-3.1-0.7-5.1-2.2-3.1-5.7
	L62.9,71z M73.4,65.7c-0.1,0-0.4,0-0.6-0.1c-0.7,1.1-1.5,2.4-1.8,2.8c-0.3,0.5-0.5,1-0.8,1.6c0.5,0.2,1.1,0.3,1.7,0.5
	c2.4,0.5,8,1,9.5-1.5c0.8-1.4-1.7-2.3-3-2.6C76.4,66,75.2,65.9,73.4,65.7L73.4,65.7z M78.8,55.8c-0.6,0.9-1.1,1.8-1.6,2.6l-0.7,1.1
	l0,0l-0.1,0.1c5.7,0.8,9.1-1,10-2.6c0.2-0.4-0.2-0.7-1-0.9C83.6,55.7,80.9,55.6,78.8,55.8"/>
<path class="st2" d="M98.4,70.6c0.8-2.3,2.3-6.5,3-8.9c1.5-4.5,2.8-8.8,3.5-11.4c0.9-2.7,3.1-4.9,5.5-4.9c7.9,0,19.6,5.4,15.3,18.5
	c-2.2,6.8-13,13.3-27.5,13.3c-2,0-2.6-1.8-1.9-3.9C96.7,72.3,97.4,71.3,98.4,70.6 M104.7,69.9c4.1-0.3,12.9-2,14.9-8.1
	c1.5-4.4-4.8-8.2-8.9-8.2c-0.7,0-1.3,1.4-2,3.7C107.5,61.1,106,65.6,104.7,69.9"/>
<path class="st0" d="M97.2,10.8c-1,4.1-3.7,5.2-6.4,4.6c-2.7-0.7-4.5-2.9-3.5-7c0.6-2.6,3.5-5.7,5.5-7.8c1-1,2.8-0.6,3.2,0.8
	C96.9,4.1,97.9,8.2,97.2,10.8"/>
<path class="st0" d="M93.9,22.7c0-1.7-0.6-3.5-2.3-4.4c-0.5-0.3-1.2-0.5-1.8-0.5c-2.2-0.2-3.8,0.9-4.8,2.9
	c-1.8,3.7-1.9,5.4-3.3,10.5c-0.8,3.1-2.8,8.9-1.9,11.1c0.8,1.9,2.4,2.6,4.4,2.9c5.4,0.8,6.5-9,7.5-12.3c0.5-1.7,1.1-4.2,1.5-5.9
	C93.6,25.7,93.9,24.1,93.9,22.7"/>
<path class="st2" d="M7.3,74.7c1.3,1.1,1.7,2,1.9,3.2c0.2,1.1,0.4,2.5,0.7,3.6c0.3,1.2,1.1,2.3,2.1,3.2c0.5,0.4,1.2,0.8,1.9,1.1
	c0.2,0.1,0.4,0.1,0.5,0.2l0.1,0c-0.2,0,0.5,0.1,1,0.1c0.5,0,1,0,1.5,0c2-0.2,3.9-0.9,5.4-2c0.2-0.1,0.4-0.3,0.5-0.4l0.3-0.2l0,0
	c1.7,1.4-3.7-3.1,3.8,3.1l0,0.1l-0.1,0.1c-0.2,0.3-0.3,0.6-0.4,0.9c-0.1,0.7-0.1,1.4,0.2,2.2c0.5,1.6,1.9,3.1,3.5,3.9
	c1.5,0.8,3.6,0.9,5.5,0.5c2-0.4,3.9-1.3,5.7-2.5c0.5-0.3,1-0.7,1.5-1.1c0.2-0.2,0.5-0.4,0.7-0.6l0.2-0.1l0,0l0,0l0,0
	c7.7,3.4,2.1,0.9,3.8,1.7l0,0.1l0,0.1l0,0.4c0.1,0.6,0.1,1.2,0.2,1.7c0.2,0.5,0.2,1.1,0.4,1.6c0.7,2,2.1,3.3,4.1,4
	c1.9,0.7,4.3,0.7,6.6,0.3c2.3-0.4,4.6-1.3,6.7-2.5c0.6-0.3,1.1-0.7,1.6-1l0.2-0.1l0,0c-3.1-1.1,4.2,1.4,3.4,1.2l0,0.1l0,0.1l0.2,0.5
	l0.3,1.1c0.3,1.4,0.6,2.7,1,3.8c0.4,1.1,0.9,2,1.6,2.9c0.7,0.8,1.6,1.4,2.4,1.8c0.9,0.3,1.7,0.3,2.7,0c0.9-0.3,1.9-0.9,2.7-1.6
	c0.8-0.8,1.5-1.7,2.2-2.8c0.3-0.5,0.7-1.1,1-1.7l0.5-0.9l0.1-0.2l0-0.1c8.3,1.1,2.3,0.3,4.1,0.6l0,0l0,0.1l0.1,0.3
	c0.7,1.9,2.4,3.8,4.4,4.9c1,0.6,2.1,1,3.1,1.1c1,0.1,2.1,0,3.1-0.3c2-0.7,3.9-2.2,4.7-4.1c0.1-0.1,0.1-0.2,0.1-0.4l0.1-0.2l0-0.1
	l0,0c8.7,0.5,2.4,0.1,4.3,0.3l0,0c0.1,0.2,0.1,0.5,0.2,0.7c0.2,0.5,0.4,0.9,0.7,1.3c0.6,0.8,1.4,1.5,2.3,2c1.8,0.9,3.9,0.8,5.6-0.4
	c0.8-0.6,1.6-1.3,2-2.2c0.2-0.4,0.4-0.9,0.5-1.4c0-0.1,0.1-0.2,0.1-0.3l0-0.2l0-0.1l0,0c2.1,0.1-4.6-0.4,4.6,0.3l0,0
	c0,0.2,0,0.3,0,0.5c0,0.2,0.1,0.3,0.2,0.5c0,0.1,0.1,0.2,0.1,0.2c0.1,0.1,0.1,0.2,0.1,0.1l0,0l0.1,0.1c0,0.1,0.1,0.1,0.2,0.2
	c0.2,0.2,0.5,0.4,0.8,0.5c1.5,0.5,3.2-0.5,4.6-1.8c1.3-1.3,2.7-3.1,4.6-4c2.2-1,4.9-0.1,5.9,2.2c0.7,1.6,0.3,3.4-0.9,5.1
	c-0.6,0.9-1.4,1.7-2.3,2.4c-0.9,0.7-1.9,1.3-2.9,1.8c-2.6,1.2-5.7,1.8-8.8,1.1c-1.6-0.4-3-1.2-4.2-2.2c-0.6-0.5-1.1-1.1-1.6-1.8
	l-0.2-0.3l-0.2-0.3c-0.3-0.5-0.5-0.9-0.7-1.5c-0.2-0.5-0.4-1.1-0.4-1.7c0-0.3-0.1-0.6-0.1-0.9l0-0.4l0-0.1c-1.5-0.2,12.7,1,6.7,0.5
	l0,0.2c-0.5,3.8-2.9,6.9-6.1,8.7c-1.6,0.9-3.5,1.4-5.4,1.4c-1.9,0-3.7-0.6-5.3-1.4c-1.6-0.9-3-2.1-4-3.6c-0.5-0.7-1-1.6-1.3-2.4
	c-0.2-0.4-0.3-0.9-0.4-1.4l0-0.2l0-0.1c2.8,0.1-6.4-0.5,6.4,0.3l-0.1,0.3l-0.2,0.6c-1.2,2.8-3.5,5.1-6.1,6.5c-2.6,1.4-5.8,2-9,1.1
	c-3-0.8-5.3-2.4-7.3-4.4c-1-1-1.9-2.2-2.6-3.6c-0.4-0.7-0.7-1.4-0.9-2.3l0-0.1l0-0.1l0,0l0,0c2.7,0.4-6.1-0.8,6.1,0.8l0,0l-0.1,0.2
	l-0.2,0.4l-0.4,0.8h0c-0.4,0.8-0.9,1.6-1.4,2.4c-1.4,2.2-3.6,4.6-6.7,5.9c-1.5,0.6-3.3,0.9-5.2,0.7c-1.8-0.3-3.4-1-4.7-2
	c-1.3-1-2.4-2.2-3.2-3.5c-0.8-1.3-1.4-2.8-1.8-4.1c-0.4-1.3-0.6-2.5-0.9-3.6L65.9,99l-0.1-0.2l0,0l0,0l0,0c-4.4-1.5,6,2.1,5,1.7l0,0
	l-0.1,0.1l-0.4,0.3c-0.6,0.4-1.1,0.8-1.7,1.1c-2.6,1.4-5.4,2.5-8.3,3.1c-3,0.6-6.2,0.7-9.5-0.5l-1.2-0.5c-0.4-0.2-0.8-0.4-1.2-0.7
	c-0.4-0.2-0.8-0.4-1.1-0.7l-1-0.9c-0.7-0.6-1.2-1.4-1.7-2.1c-0.5-0.7-0.8-1.6-1.2-2.4c-0.3-0.8-0.5-1.6-0.7-2.4
	c-0.2-0.8-0.2-1.6-0.3-2.4l-0.1-0.6l0-0.1l0-0.1l0,0l0,0c-1.2-0.5,10.1,4.4,5.3,2.3l0,0l-0.2,0.2c-0.3,0.2-0.6,0.5-0.9,0.7
	c-0.6,0.5-1.2,0.9-1.8,1.3c-2.2,1.5-4.8,2.7-7.6,3.3c-1.4,0.3-2.9,0.4-4.5,0.3c-0.8,0-1.5-0.2-2.3-0.4c-0.8-0.2-1.6-0.5-2.3-0.8
	c-2.9-1.4-5.2-3.8-6.3-7c-0.6-1.6-0.8-3.4-0.5-5.2c0.1-0.5,0.2-0.9,0.4-1.4c0.1-0.5,0.4-0.9,0.6-1.3l0.2-0.3l0.1-0.2l0-0.1
	c2.2,1.8-4.8-4.1,4.9,3.9l-0.4,0.4c-0.3,0.3-0.6,0.5-0.9,0.7c-2.4,1.9-5.3,2.9-8.3,3.2c-0.7,0.1-1.5,0.1-2.2,0.1l-1.1-0.1l-0.5-0.1
	l-0.2,0c-0.3,0-0.6-0.1-0.9-0.2c-1.1-0.2-2.3-0.6-3.3-1.1c-2.2-1-4.2-2.4-5.8-4c-1.5-1.5-2.7-3.4-3.3-5.5c-0.6-2.1-0.4-4.4,0.7-6.2
	c0.8-1.3,2.1-1.7,3.2-1.6C5.3,73.3,6.4,74,7.3,74.7"/>
</svg>
