<?xml version="1.0" encoding="utf-8"?>
<!-- Generator: Adobe Illustrator 24.1.1, SVG Export Plug-In . SVG Version: 6.00 Build 0)  -->
<svg version="1.1" id="defalt" xmlns="http://www.w3.org/2000/svg" xmlns:xlink="http://www.w3.org/1999/xlink" x="0px" y="0px"
	 viewBox="0 0 200 30.9" style="enable-background:new 0 0 200 30.9;" xml:space="preserve">
<style type="text/css">
	.st0{fill:#F478C4;}
	.st1{fill:#8784D6;}
</style>
<g>
	<path class="st0" d="M173.3,6.8c0,3-1.6,4.2-3.5,4.2c-1.9,0-3.5-1.2-3.5-4.2c0-1.8,1.4-4.5,2.4-6.2c0.5-0.9,1.8-0.9,2.3,0
		C171.9,2.4,173.3,5,173.3,6.8z"/>
	<path class="st1" d="M122.1,19c-0.3,0.3-0.6,0.7-1.1,1.3c-1.7,2.1-2.5,4.3-1.9,6.7c0.5,2.1,2.7,2.9,4.7,3.3c2,0.5,4.9,0.5,7.4,0.2
		c2.1-0.2,4.6-0.7,6.3-2c1.5-1,2.6-3.1,1.3-4.7c-1-1.2-2.2-1.3-3.3-1.1c-1.5,0.2-7.9,3.1-8.9,0.9c-0.4-0.9,1.1-2,1.7-2.3
		c1.9-0.8,4-1.3,6.2-1.9c1.8-0.5,2.9-1.5,2.9-3.4c0.1-1.4-1-2.4-2.5-2.5c-2.7-0.2-5.8,0.9-8.5,0.3c-1.1-0.3-2.5-1.1-1.3-2.5
		c1.1-1.3,3-1.8,4.7-2c2-0.3,4.1-0.1,6,0.6c2,0.8,3.1-0.2,3.8-1.4c1.2-2.2,0.3-4.6-1.9-5.6c-2-0.9-4.4-0.6-6.4-0.3
		c-3.1,0.5-6,1.8-8.5,3.7c-2.1,1.6-3.7,3.4-4.2,6.1C117.8,15.5,118.5,16.8,122.1,19z"/>
	<path class="st1" d="M149.9,14.2c-0.4,0-0.8-0.4-0.8-0.8c0-0.4,0-0.7,0-1c0-2,0.2-4.9,0.1-7c-0.1-1.5-1.2-2.8-2.8-2.7
		c-1.9,0.1-3.1,1.3-3.5,3.2c-0.5,2.2-0.2,5.5-0.1,7.7c0.1,2.4,0.2,4.9,0,7.4c-0.1,1.2-0.2,2.4-0.3,3.6c-0.2,1.5-0.3,3.2,0.4,4.6
		c0.6,1.3,2,1.8,3.4,1.6c1.5-0.2,2.4-1.3,2.7-2.7c0.4-2.1-0.1-4.3,0.1-6.4c0-0.4,0.1-1,0.8-1c1.7,0,3.1,0.1,5,0.1
		c0.3,0,0.6,0.3,0.6,0.6c0,0.4,0,0.8,0,1.1c0,1.5-0.3,3.2-0.3,4.7c0.1,2.2,2,4.1,4.3,3.4c1.5-0.5,2.1-1.7,2.2-3.3
		c0.1-3.2,0.2-6.7,0.3-9.9c0.1-3,0.3-6.1,0.4-9.1c0-1.6,0.1-4.6-1.6-5.4c-1.7-0.8-3.7,0.2-4.4,1.8c-1,2.3-0.3,5.2-0.4,7.6
		c0,0.4,0.1,1.3-0.2,1.6c-0.3,0.5-2.1,0.2-2.6,0.2C152.1,14.2,151,14.2,149.9,14.2z"/>
	<path class="st1" d="M105.2,23.5c0-5.2,0.2-10.3,0.5-15.5c0.1-1.3,0-2.7-0.8-3.7c-0.6-0.8-1.6-1.3-2.6-1.4c-1.3,0-2.6,0.8-3,2.1
		c-0.5,1.5-0.4,3.1-0.4,4.7c0,3.1,0.1,6.2,0,9.3c0,1.9,0,3.7-0.2,5.6c-0.1,1.7-0.2,3.7,1.4,4.8c1.3,0.9,3,0.9,4.6,0.9
		c2.4,0,4.8,0.1,7.2-0.1c2.3-0.1,5-1.4,4.6-4.1c-0.2-1.1-0.8-2.2-1.8-2.6c-0.8-0.4-1.8-0.3-2.7-0.3
		C111.5,23.3,105.2,24.7,105.2,23.5z"/>
	<path class="st1" d="M172.8,15.1c-0.3-1.1-0.9-2.1-2.1-2.4c-0.4-0.1-0.8-0.1-1.2-0.1c-1.4,0.2-2.2,1.2-2.5,2.5
		c-0.6,2.6-0.3,3.7-0.4,7.1c0,2.1-0.4,6,0.5,7.3c0.8,1.1,1.9,1.3,3.2,1.1c3.5-0.4,2.6-6.6,2.7-8.9c0-1.2,0-2.8,0-3.9
		C173.1,17,173.1,16,172.8,15.1z"/>
	<path class="st1" d="M62.7,21.5c0.5,0.5,1.1,1,1.7,1.5c1.6,1.4,4.2,2.2,4.3,4.7c0,1.1-0.6,2.2-1.6,2.6c-1.3,0.5-2.5,0.5-3.8-0.2
		c-0.9-0.4-1.4-1.1-2-1.8c-0.2-0.2-0.3-0.4-0.5-0.6c-0.7-0.9-1.5-1.7-2.3-2.5c-1.4-1.3-2.5-2.5-3.4-3.6c0.1,1.8,0.2,3.5,0.3,5.3
		c0.2,2-1.3,3.5-3.2,3.5c-0.9,0-2.1-0.2-2.7-1c-0.9-1.2-0.4-2.9-0.3-4.3c0-1.8,0.1-3.6,0.1-5.4c0.1-2.4,0.2-4.7,0.1-7.1
		c0-1.3-0.3-2.7-0.7-4c-0.6-2.1,0.1-3.4,1.6-4.1c3.9-1.8,8.4-2.4,13.5-1.5c4.6,0.8,7.2,4.1,6.6,8c-0.2,1.1-0.6,2.2-1.2,3.1
		c-1.6,2.6-4.1,4.3-7,5.7c-0.2,0.1-0.9,0.5-0.9,0.5C61.8,20.6,62.3,21.1,62.7,21.5z M55.1,15.3c0,0.7,2.9-0.1,5.6-1.1
		c1.3-0.5,3.8-1.6,3.8-3.3c0-1.6-2.4-1.9-3.6-2c-1.8-0.1-3.6,0.5-5.3,1c-0.2,0.1-0.3,0.3-0.4,0.7C55.2,12.2,55.1,13.5,55.1,15.3z"/>
	<path class="st1" d="M184.8,22.9c-0.5,0.1-0.9,0.5-0.9,1.1c-0.1,1.5-0.2,3-0.4,4.4c-0.5,3.3-5.8,3-6.1-0.1c-0.1-0.7,0-1.4,0.1-2
		c0.4-3.3,0.3-6.6,0.3-9.9c0-1.5,0.1-2.9,0.1-4.4c0-1.3-0.2-2.5-0.4-3.8c-0.3-1.9,0.4-3.5,2.2-4.2c3.8-1.5,8.1-1.9,12.8-1.2
		c5.5,0.7,8.5,4.8,7.4,9.7c-0.8,3.8-3.3,6.2-6.6,7.8C190.6,21.5,187.1,22.4,184.8,22.9z M183.8,15.8c0,0.5,0.4,0.9,0.9,0.9
		c0.3,0,0.6,0,0.8-0.1c3.4-0.6,6.5-1.6,8.3-4.2c0.9-1.3,0-2.6-1.8-3.1c-2.2-0.5-4.8-0.4-7,0.2c-0.4,0.1-1,0.3-1,0.8
		C183.9,12.1,183.8,13.8,183.8,15.8z"/>
	<path class="st1" d="M44.4,4.2c-0.8-0.8-2.2-0.8-2.9-0.5C39.7,4.4,39,6.1,39,8.1c0,2.1,0.2,4.3,0.2,6.4c-0.1,2.4-0.2,4.7-0.5,7
		c-0.2,1.6-1.5,2.8-3.2,2.8c-1.7-0.1-2.6-1.3-2.8-2.9c-0.3-2.3-0.3-4.7-0.3-7c0-2.1,0.3-4.3,0.4-6.4c0.1-2.1-0.4-4.6-2.3-4.9
		c-0.8-0.1-2.1,0-3,0.8c-1.4,1.3-1,3.5-1,5.2c0,1.3,0,2.6,0,3.9c0,2.5,0,5,0,7.6c0,1.4,0.1,2.6,0.5,3.8c0.6,2,1.7,3.8,3.5,5
		c4.4,2.9,11.1,1.7,13.6-3.2c0.3-0.5,0.5-1,0.6-1.6c0.4-1.2,0.5-2.4,0.6-3.8c0.1-2.5,0.2-5,0.2-7.6c0-1.3,0.1-2.6,0.1-3.9
		C45.3,7.7,45.8,5.5,44.4,4.2z"/>
	<path class="st1" d="M8.8,10.3c-0.1-0.5-0.4-0.9-1.1-1C6.3,9.1,4.9,9.8,3.5,9.7c-1.4-0.1-3-0.4-3.4-2c-0.2-1,0-2,0.3-2.9
		C1.4,1.9,5.8,2.9,8,3c1.7,0.1,3.5,0.1,5.2,0.1c1.5,0,2.9,0,4.4-0.1C19,3,20.4,2.8,21.7,3c0.9,0.1,1.8,0.5,2.2,1.3
		c0.8,1.5,0,3.8-1.5,4.7c-0.9,0.5-2.1,0.3-3.1,0.2c-1.1-0.1-2.2-0.2-3.3,0.1c-0.7,0.1-0.8,0.4-0.8,0.9c0,5.5-0.1,10.9-0.2,16.4
		c0,1.9-1.1,3.4-2.9,3.8c-1.6,0.4-2.9-0.3-3.3-1.6c-0.3-0.9-0.4-1.8-0.4-2.6c0.1-2.9,0.2-5.9,0.3-8.8c0-1.3,0.1-2.6,0.1-3.9
		c0-0.6,0-1.2,0-1.8C8.8,11.4,8.9,10.8,8.8,10.3z"/>
	<path class="st1" d="M81.5,10.3c-0.1-0.5-0.4-0.9-1.1-1c-1.5-0.2-2.8,0.5-4.3,0.4c-1.4-0.1-3-0.4-3.4-2c-0.2-1,0-2,0.3-2.9
		c1-2.9,5.4-1.9,7.7-1.8c1.7,0.1,3.5,0.1,5.2,0.1c1.5,0,2.9,0,4.4-0.1C91.6,3,93,2.8,94.4,3c0.9,0.1,1.8,0.5,2.2,1.3
		c0.8,1.5,0,3.8-1.5,4.7C94.2,9.5,93,9.3,92,9.2c-1.1-0.1-2.2-0.2-3.3,0.1c-0.7,0.1-0.8,0.4-0.8,0.9c0,5.5-0.1,10.9-0.2,16.4
		c0,1.9-1.1,3.4-2.9,3.8c-1.6,0.4-2.9-0.3-3.3-1.6c-0.3-0.9-0.4-1.8-0.4-2.6c0.1-2.9,0.2-5.9,0.3-8.8c0-1.3,0.1-2.6,0.1-3.9
		c0-0.6,0-1.2,0-1.8C81.5,11.4,81.5,10.8,81.5,10.3z"/>
</g>
</svg>
