<?xml version="1.0" encoding="utf-8"?>
<!-- Generator: Adobe Illustrator 24.1.1, SVG Export Plug-In . SVG Version: 6.00 Build 0)  -->
<svg version="1.1" xmlns="http://www.w3.org/2000/svg" xmlns:xlink="http://www.w3.org/1999/xlink" x="0px" y="0px"
	 viewBox="0 0 139.1 24.8" style="enable-background:new 0 0 139.1 24.8;" xml:space="preserve">
<style type="text/css">
	.st0{clip-path:url(#SVGID_2_);fill:#F478C4;}
</style>
<g id="Layer_1">
</g>
<g id="Layer_2">
	<g>
		<defs>
			<rect id="SVGID_1_" x="0" y="0" width="139.1" height="24.8"/>
		</defs>
		<clipPath id="SVGID_2_">
			<use xlink:href="#SVGID_1_"  style="overflow:visible;"/>
		</clipPath>
		<polygon class="st0" points="13.1,0 9,8.2 0,9.5 6.5,15.8 5,24.8 13.1,20.6 21.1,24.8 19.6,15.8 26.1,9.5 17.1,8.2 		"/>
		<polygon class="st0" points="41.3,0 37.3,8.2 28.3,9.5 34.8,15.8 33.2,24.8 41.3,20.6 49.4,24.8 47.8,15.8 54.4,9.5 45.3,8.2 		
			"/>
		<polygon class="st0" points="69.6,0 65.5,8.2 56.5,9.5 63,15.8 61.5,24.8 69.6,20.6 77.6,24.8 76.1,15.8 82.6,9.5 73.6,8.2 		"/>
		<polygon class="st0" points="97.8,0 93.8,8.2 84.8,9.5 91.3,15.8 89.7,24.8 97.8,20.6 105.9,24.8 104.3,15.8 110.9,9.5 101.8,8.2 
					"/>
		<polygon class="st0" points="126.1,0 122,8.2 113,9.5 119.5,15.8 118,24.8 126.1,20.6 134.1,24.8 132.6,15.8 139.1,9.5 130.1,8.2 
					"/>
	</g>
</g>
</svg>
